<svg xmlns="http://www.w3.org/2000/svg" width="13" height="10" viewBox="0 0 13 10">
    <g fill="none" fill-rule="evenodd">
        <path d="M-1-1h15v12H-1z"/>
        <path fill="#FFF" d="M4.418 9.79L.178 5.446A.649.649 0 0 1 0 4.974c0-.192.06-.35.178-.471l.94-.943a.56.56 0 0 1 .444-.21c.177 0 .334.07.47.21l2.843 2.932L10.969.21a.636.636 0 0 1 .47-.209.56.56 0 0 1 .444.21l.94.942c.118.122.177.28.177.471 0 .192-.06.35-.178.471l-7.49 7.697a.572.572 0 0 1-.457.209.572.572 0 0 1-.457-.21z"/>
    </g>
</svg>
