<?xml version="1.0" encoding="utf-8"?>
<!-- Generator: Adobe Illustrator 26.0.3, SVG Export Plug-In . SVG Version: 6.00 Build 0)  -->
<svg version="1.1" id="Layer_1" xmlns="http://www.w3.org/2000/svg" xmlns:xlink="http://www.w3.org/1999/xlink" x="0px" y="0px"
	 viewBox="0 0 518.1 120" style="enable-background:new 0 0 518.1 120;" xml:space="preserve">
<style type="text/css">
	.st0{fill:#FFFFFF;}
	.st1{fill:url(#SVGID_1_);filter:url(#Adobe_OpacityMaskFilter);}
	.st2{mask:url(#mask0_12_19_00000132804051707336954800000012497393981259433398_);}
	.st3{fill:#005BBB;}
	.st4{fill:#FFD700;}
</style>
<title>Hive Logo</title>
<desc>Created with Sketch.</desc>
<g id="FINAL-LOGOS">
	<g id="Hive-Logo">
		<g id="Group">
			<path id="Hive-Copy" class="st0" d="M280,109.2V10.1C280,4.7,275.6,0,270,0c-6.1,0-10,4.7-10,10.1V48h-62V10.1
				C198,4.7,193.6,0,188,0c-5.9,0-10,4.7-10,10.1v99.1c0,5.6,4.4,10.7,10,10.7c5.9,0,10-5.1,10-10.7V65h62v44.2
				c0,5.6,4.3,10.7,10,10.7C276,119.9,280,114.8,280,109.2z M310.1,0c-5.5,0-10,4.4-10,9.9c0,5.6,4.5,10.1,10,10.1
				c5.5,0,10-4.4,10-10.1C320.1,4.4,315.6,0,310.1,0z M320.1,110.2V41.8c0-4.9-4.8-9.6-10-9.6c-5.9,0-10,4.7-10,9.6v68.4
				c0,5.1,4.8,9.7,10.4,9.7S320.1,115.3,320.1,110.2z M422.3,41.4c0-4.9-3.9-9.3-9.7-9.3c-3.7,0-7.2,2.1-8.6,5.8L382.1,97
				l-23.2-59.2c-1.4-3.5-4.7-5.6-8.6-5.6c-5.6,0-9.5,4.5-9.5,9.1c0,1,0.2,2.3,0.7,3.3l26.7,65.1c2.1,5.2,7.8,10.2,13.6,10.2h0.4
				c5.8,0,10.5-5,12.8-10.2l26.7-65.1C422.1,43.5,422.3,42.3,422.3,41.4z M516.9,72.8c0,4.8-3.9,8.4-8.9,8.4h-55.2
				c1.2,12.5,11.1,23.6,26.6,23.6c6,0,12.9-1.9,18.6-5.5c1.2-0.7,2.6-1,3.8-1c3.8,0,7.7,3.1,7.7,7.6c0,9.5-21.3,13.8-32,13.8
				c-25,0-43.5-17.5-43.5-43.9c0-24.2,17.6-43.8,42.2-43.8c19.4,0,33.6,11.8,38.7,29.8C515.9,65.2,516.9,69.2,516.9,72.8z M501,68.1
				c-0.3-9.8-7-22.5-23.4-22.5c-15.4,0-22.8,12.3-23.6,22.5H501z"/>
		</g>
	</g>
</g>
<defs>
	<filter id="Adobe_OpacityMaskFilter" filterUnits="userSpaceOnUse" x="-3" y="0" width="170" height="124.1">
		<feColorMatrix  type="matrix" values="1 0 0 0 0  0 1 0 0 0  0 0 1 0 0  0 0 0 1 0"/>
	</filter>
</defs>
<mask maskUnits="userSpaceOnUse" x="-3" y="0" width="170" height="124.1" id="mask0_12_19_00000132804051707336954800000012497393981259433398_">
	
		<linearGradient id="SVGID_1_" gradientUnits="userSpaceOnUse" x1="1.7913" y1="62.2703" x2="161.0707" y2="62.2703" gradientTransform="matrix(1 0 0 -1 0 122)">
		<stop  offset="0" style="stop-color:#FBC67A"/>
		<stop  offset="1" style="stop-color:#FFA561"/>
	</linearGradient>
	<path class="st1" d="M96.3,119.5h25.3c6.8,0,12.4-6.7,12.4-14.9s-5.6-14.9-12.4-14.9H41.8c-6.8,0-12.4,6.7-12.4,14.9
		s5.6,14.9,12.4,14.9h26.3c1-2.9,2.9-5.4,5.5-7.2c2.5-1.8,5.5-2.7,8.6-2.7c3.1,0,6.1,1,8.6,2.7C93.4,114,95.3,116.5,96.3,119.5
		L96.3,119.5z M121.6,29.9H41.8c-6.8,0-12.4-6.7-12.4-14.9S35,0,41.8,0h79.8c6.8,0,12.4,6.7,12.4,14.9S128.4,29.9,121.6,29.9
		L121.6,29.9z M15.6,74.7c-7.7,0-14-6.7-14-14.9s6.3-14.9,14-14.9h131.4c7.6,0,13.9,6.7,13.9,14.9s-6.3,14.9-13.9,14.9H15.6z"/>
</mask>
<g class="st2">
	<rect x="-3" class="st3" width="170" height="63.2"/>
	<rect x="-3" y="60.9" class="st4" width="170" height="63.2"/>
</g>
</svg>
